<?xml version="1.0" encoding="UTF-8"?>
<svg id="Camada_1" xmlns="http://www.w3.org/2000/svg" xmlns:xlink="http://www.w3.org/1999/xlink" version="1.1" viewBox="0 0 1920 762.4">
  <!-- Generator: Adobe Illustrator 29.6.1, SVG Export Plug-In . SVG Version: 2.1.1 Build 9)  -->
  <defs>
    <style>
      .st0 {
        fill: none;
      }

      .st1 {
        fill: url(#Gradiente_sem_nome_19);
      }

      .st2 {
        fill: url(#Gradiente_sem_nome_18);
      }

      .st3 {
        fill: url(#Gradiente_sem_nome_10);
      }

      .st4 {
        fill: url(#Gradiente_sem_nome_17);
      }

      .st5 {
        fill: url(#Gradiente_sem_nome_16);
      }

      .st6 {
        fill: #213b88;
      }

      .st7 {
        clip-path: url(#clippath-1);
      }

      .st8 {
        clip-path: url(#clippath-3);
      }

      .st9 {
        clip-path: url(#clippath-4);
      }

      .st10 {
        clip-path: url(#clippath-2);
      }

      .st11 {
        clip-path: url(#clippath-6);
      }

      .st12 {
        clip-path: url(#clippath-5);
      }

      .st13 {
        clip-path: url(#clippath);
      }
    </style>
    <clipPath id="clippath">
      <polygon class="st0" points="597.12 60.22 489.79 366.55 372.2 702.18 526.12 702.18 751.02 60.22 597.12 60.22"/>
    </clipPath>
    <linearGradient id="Gradiente_sem_nome_10" data-name="Gradiente sem nome 10" x1="680" y1="129.95" x2="696.19" y2="129.95" gradientTransform="translate(1290.66 -3606.59) rotate(90) scale(5.61)" gradientUnits="userSpaceOnUse">
      <stop offset="0" stop-color="#213b88"/>
      <stop offset="1" stop-color="#193068"/>
    </linearGradient>
    <clipPath id="clippath-1">
      <rect class="st0" x="33.05" y="53.57" width="1833.81" height="655.28"/>
    </clipPath>
    <clipPath id="clippath-2">
      <rect class="st0" x="136.6" y="556.52" width="238.9" height="145.68"/>
    </clipPath>
    <linearGradient id="Gradiente_sem_nome_16" data-name="Gradiente sem nome 16" x1="657.19" y1="51.2" x2="673.38" y2="51.2" gradientTransform="translate(-3629.01 330.33) scale(5.84)" gradientUnits="userSpaceOnUse">
      <stop offset="0" stop-color="#193068" stop-opacity="0"/>
      <stop offset="1" stop-color="#193068"/>
    </linearGradient>
    <clipPath id="clippath-3">
      <rect class="st0" x="39.75" y="277.89" width="238.9" height="145.68"/>
    </clipPath>
    <linearGradient id="Gradiente_sem_nome_18" data-name="Gradiente sem nome 18" x1="658.02" y1="3.82" x2="674.21" y2="3.82" gradientTransform="translate(-3730.69 328.41) scale(5.84)" gradientUnits="userSpaceOnUse">
      <stop offset="0" stop-color="#193068" stop-opacity="0"/>
      <stop offset="1" stop-color="#193068"/>
    </linearGradient>
    <clipPath id="clippath-4">
      <rect class="st0" x="266.19" y="277.89" width="238.92" height="145.68"/>
    </clipPath>
    <linearGradient id="Gradiente_sem_nome_19" data-name="Gradiente sem nome 19" x1="807.58" y1="169.76" x2="823.77" y2="169.76" gradientTransform="translate(4212.51 1146.89) rotate(-180) scale(4.69)" gradientUnits="userSpaceOnUse">
      <stop offset="0" stop-color="#193068" stop-opacity="0"/>
      <stop offset="1" stop-color="#193068"/>
    </linearGradient>
    <clipPath id="clippath-5">
      <rect class="st0" x="363.02" y="556.52" width="238.9" height="145.68"/>
    </clipPath>
    <linearGradient id="Gradiente_sem_nome_17" data-name="Gradiente sem nome 17" x1="808.61" y1="110.76" x2="824.8" y2="110.76" gradientTransform="translate(4314.16 1148.83) rotate(-180) scale(4.69)" gradientUnits="userSpaceOnUse">
      <stop offset="0" stop-color="#193068" stop-opacity="0"/>
      <stop offset="1" stop-color="#193068"/>
    </linearGradient>
    <clipPath id="clippath-6">
      <polygon class="st6" points="95.48 60.22 202.79 366.55 320.38 702.18 474.28 702.18 356.69 366.55 300.41 205.86 95.48 60.22"/>
    </clipPath>
  </defs>
  <g class="st13">
    <rect class="st3" x="372.2" y="60.22" width="378.82" height="641.97"/>
  </g>
  <g class="st7">
    <path class="st6" d="M623.75,277.89H33.05v145.68h590.7c36.71,0,66.47,29.77,66.47,66.47s-29.75,66.47-66.47,66.48H33.05v145.68h590.7c117.17,0,212.14-94.99,212.14-212.16s-94.98-212.14-212.14-212.14"/>
  </g>
  <g class="st10">
    <rect class="st5" x="118.8" y="519.79" width="274.48" height="219.12" transform="translate(-201.3 126.88) rotate(-20.17)"/>
  </g>
  <g class="st8">
    <rect class="st2" x="21.96" y="241.16" width="274.48" height="219.12" transform="translate(-111.17 76.4) rotate(-20.17)"/>
  </g>
  <g class="st9">
    <rect class="st1" x="248.4" y="241.16" width="274.5" height="219.13" transform="translate(-97.28 154.48) rotate(-20.17)"/>
  </g>
  <g class="st12">
    <rect class="st4" x="345.23" y="519.79" width="274.48" height="219.12" transform="translate(-187.42 204.95) rotate(-20.17)"/>
  </g>
  <g>
    <polygon class="st6" points="95.48 60.22 202.79 366.55 320.38 702.18 474.28 702.18 356.69 366.55 300.41 205.86 95.48 60.22"/>
    <g class="st11">
      <rect class="st6" x="95.48" y="60.22" width="378.8" height="641.97"/>
    </g>
  </g>
  <rect class="st0" x="33.05" y="53.57" width="1833.81" height="655.28"/>
  <polygon class="st6" points="300.41 205.89 33.04 205.89 33.04 60.22 249.39 60.22 300.41 205.89"/>
  <polygon class="st6" points="1042.4 107.68 1042.4 172.2 1144.4 172.2 1144.4 218.83 1042.4 218.83 1042.4 337.89 984.11 337.89 984.11 60.23 1149.82 60.23 1149.82 107.68 1042.4 107.68"/>
  <polygon class="st6" points="1184.48 337.89 1184.48 60.22 1243.6 60.22 1243.6 289.61 1351 289.61 1351 337.89 1184.48 337.89"/>
  <path class="st6" d="M1481.47,343.71c-60.37,0-102-44.13-102-106.99s43.72-109.5,106.16-109.5,102.41,44.55,102.41,106.16c0,65.37-43.29,110.32-106.57,110.32M1483.14,173.46c-28.73,0-47.46,24.57-47.46,61.21s20.4,62.44,49.55,62.44,46.62-24.15,46.62-61.19-19.99-62.45-48.71-62.45"/>
  <path class="st6" d="M1764.44,344.55c-78.27,0-138.63-54.12-138.63-143.22s63.28-147.78,146.13-147.78c62.45,0,91.17,29.14,94.08,32.05l-25.4,38.72c-3.33-2.09-25.8-21.24-66.19-21.24-50.36,0-89.5,35.39-89.5,94.51s33.72,95.75,86.59,95.75c36.63,0,66.19-20.41,70.77-22.91l24.56,39.56c-3.32,3.32-39.53,34.55-102.41,34.55"/>
  <path class="st6" d="M981.04,702.61v-32.21l33.23-30.92c65.92-60.98,97.01-94.59,97.38-131.62,0-25.33-13.46-47.17-50.09-47.17-24.8,0-45.83,12.57-59.82,23.35l-15.55-37.69c20.13-16.06,50.78-28.73,86.04-28.73,62.13,0,92.55,39.06,92.55,84.89,0,49.3-35.41,88.88-84.41,134.14l-24.25,21.26v.86h114.83v43.84h-189.91Z"/>
  <path class="st6" d="M1414.31,560.58c0,90.28-35.28,146.79-102.44,146.79s-98.85-58.8-99.4-144.07c0-87.17,37.08-145.67,102.56-145.67s99.28,60.53,99.28,142.95ZM1265.71,563.18c-.12,68.37,18.57,103.71,47.86,103.71,31.45,0,47.47-37.96,47.47-105.1s-15.34-103.53-47.42-103.53c-28.11,0-47.97,34.87-47.91,104.92h0Z"/>
  <path class="st6" d="M1451.87,702.61v-32.21l33.23-30.92c65.92-60.98,97.01-94.59,97.38-131.62,0-25.33-13.46-47.17-50.09-47.17-24.8,0-45.83,12.57-59.82,23.35l-15.55-37.69c20.13-16.06,50.78-28.73,86.04-28.73,62.13,0,92.55,39.06,92.55,84.89,0,49.3-35.41,88.88-84.41,134.14l-24.25,21.26v.86h114.83v43.84h-189.91Z"/>
  <path class="st6" d="M1857.77,460.04c-7.75-.31-16.33.05-26.99,1.31-58.84,6.86-87.1,42.77-94.01,81.68h1.17c13.73-15.74,34.91-26.92,63.14-26.92,48.32,0,85.87,34.46,85.87,91.11,0,53.74-39.23,100.14-98.84,100.14-67.99,0-105.71-51.62-105.71-120.93,0-53.91,19.47-97.7,48.66-125.58,25.74-24.35,59.73-38.24,99.71-41.41,11.67-1.34,20.31-1.35,26.86-1.09l.14,41.68h0ZM1833.08,610.16c-.06-32.37-17.86-55.46-48.83-55.46-20,0-37.77,12.2-45.87,29.09-2.05,4.05-3.39,9.29-3.39,16.66.97,37.05,18.35,67.29,52.73,67.29,27.45,0,45.37-23.85,45.37-57.57h-.01Z"/>
</svg>