<?xml version="1.0" encoding="utf-8"?>
<svg version="1.1" xmlns="http://www.w3.org/2000/svg" xmlns:xlink="http://www.w3.org/1999/xlink" viewBox="0 0 200 60">
            <polygon fill="#FFFFFF" points="200,21.6 178.4,43.1 156.8,21.6 178.4,0 "></polygon>
            <polygon fill="#452325" points="11.3,50.8 11.2,50.8 5.8,28.8 0,28.8 7.9,59.5 14.6,59.5 22.4,28.8 16.7,28.8     "></polygon>
            <path fill="#452325" d="M34.9,28.3c-5.7,0-9.7,2.7-9.7,10.3v11c0,7.6,4,10.3,9.7,10.3c5.7,0,9.7-2.7,9.7-10.3v-11
                C44.6,31.1,40.6,28.3,34.9,28.3z M38.7,50.4c0,3.4-1.5,4.3-3.8,4.3c-2.3,0-3.8-0.9-3.8-4.3V37.9c0-3.4,1.5-4.3,3.8-4.3
                c2.3,0,3.8,0.9,3.8,4.3V50.4z"></path>
            <polygon fill="#452325" points="55.3,28.8 49.4,28.8 49.4,59.5 64.7,59.5 64.7,54.3 55.3,54.3    "></polygon>
            <path fill="#452325" d="M77.5,28.3c-5.7,0-9.7,2.7-9.7,10.3v11c0,7.6,4,10.3,9.7,10.3c5.7,0,9.7-2.7,9.7-10.3v-11
                C87.2,31.1,83.2,28.3,77.5,28.3z M81.4,50.4c0,3.4-1.5,4.3-3.8,4.3c-2.3,0-3.8-0.9-3.8-4.3V37.9c0-3.4,1.5-4.3,3.8-4.3
                c2.3,0,3.8,0.9,3.8,4.3V50.4z"></path>
            <polygon fill="#452325" points="90.2,34 97.1,34 97.1,59.5 103,59.5 103,34 109.8,34 109.8,28.8 90.2,28.8    "></polygon>
            <polygon fill="#452325" points="119.2,46.2 127,46.2 127,41 119.2,41 119.2,34 129.4,34 129.4,28.8 113.3,28.8 113.3,59.5 129.9,59.5
                129.9,54.3 119.2,54.3   "></polygon>
            <polygon fill="#452325" points="147.2,28.8 140.5,28.8 132.6,59.5 138.4,59.5 143.8,37.5 143.8,37.5 149.3,59.5 155.1,59.5    "></polygon>
            <path fill="#E10E49" d="M200,21.6l-7.2-7.2l0,0l-1.6-1.6V16l-1.6,1.6v-6.4L188,9.6v9.6l0,0l-1.6,1.6V8l-0.8-0.8L178.4,0l-7.2,7.2
                L170.4,8v12.8l-1.6-1.6V9.6l-1.6,1.6v6.4l-1.6-1.6v-3.2l-1.6,1.6l0,0l-7.2,7.2l7.2,7.2l1.6,1.6v-3.2l1.6-1.6v6.4l1.6,1.6v-9.6
                l1.6-1.6v12.8l0.8,0.8l7.2,7.2l7.2-7.2l0.8-0.8V22.3l1.6,1.6h0v9.6l1.6-1.6v-6.4l1.6,1.6v3.2l1.6-1.6l0,0l0,0L200,21.6z M178.4,14.4
                L178.4,14.4L178.4,14.4L178.4,14.4L178.4,14.4z M184.8,22.3v12.8l-1.6-1.6l0,0v-9.6l-1.6,1.6v6.4l-1.6-1.6l0,0v-3.2l-1.6,1.6
                l-1.6-1.6v3.2l-1.6,1.6v-6.4l-1.6-1.6v9.6l-1.6,1.6V22.3l-0.8-0.8l0.8-0.8V8l1.6,1.6v9.6l1.6-1.6v-6.4l1.6,1.6V16l1.6-1.6L180,16
                v-3.2l1.6-1.6l0,0v6.4l1.6,1.6V9.6l1.6-1.6v12.8l0.8,0.8L184.8,22.3z"></path>
</svg>
