<svg viewBox="20 0 832 832" xmlns="http://www.w3.org/2000/svg"><defs><clipPath id="clippath"><path d="M597.12 60.22 489.79 366.55 372.2 702.18h153.92l224.9-641.96h-153.9z" class="st0"/></clipPath><clipPath id="clippath-1"><path d="M33.05 53.57h1833.81v655.28H33.05z" class="st0"/></clipPath><clipPath id="clippath-2"><path d="M136.6 556.52h238.9V702.2H136.6z" class="st0"/></clipPath><clipPath id="clippath-3"><path d="M39.75 277.89h238.9v145.68H39.75z" class="st0"/></clipPath><clipPath id="clippath-4"><path d="M266.19 277.89h238.92v145.68H266.19z" class="st0"/></clipPath><clipPath id="clippath-5"><path d="M363.02 556.52h238.9V702.2h-238.9z" class="st0"/></clipPath><clipPath id="clippath-6"><path d="m95.48 60.22 107.31 306.33 117.59 335.63h153.9L356.69 366.55l-56.28-160.69L95.48 60.22z" class="st6"/></clipPath><linearGradient gradientUnits="userSpaceOnUse" gradientTransform="matrix(0 5.61 -5.61 0 1290.66 -3606.59)" y2="129.95" x2="696.19" y1="129.95" x1="680" data-name="Grad10" id="Grad10"><stop stop-color="#213b88" offset="0"/><stop stop-color="#193068" offset="1"/></linearGradient><linearGradient gradientUnits="userSpaceOnUse" gradientTransform="matrix(5.84 0 0 5.84 -3629.01 330.33)" y2="51.2" x2="673.38" y1="51.2" x1="657.19" data-name="Grad16" id="Grad16"><stop stop-opacity="0" stop-color="#193068" offset="0"/><stop stop-color="#193068" offset="1"/></linearGradient><linearGradient gradientUnits="userSpaceOnUse" gradientTransform="matrix(5.84 0 0 5.84 -3730.69 328.41)" y2="3.82" x2="674.21" y1="3.82" x1="658.02" data-name="Grad18" id="Grad18"><stop stop-opacity="0" stop-color="#193068" offset="0"/><stop stop-color="#193068" offset="1"/></linearGradient><linearGradient gradientUnits="userSpaceOnUse" gradientTransform="matrix(-4.69 0 0 -4.69 4212.51 1146.89)" y2="169.76" x2="823.77" y1="169.76" x1="807.58" data-name="Grad19" id="Grad19"><stop stop-opacity="0" stop-color="#193068" offset="0"/><stop stop-color="#193068" offset="1"/></linearGradient><linearGradient gradientUnits="userSpaceOnUse" gradientTransform="rotate(180 2157.08 574.415) scale(4.69)" y2="110.76" x2="824.8" y1="110.76" x1="808.61" data-name="Grad17" id="Grad17"><stop stop-opacity="0" stop-color="#193068" offset="0"/><stop stop-color="#193068" offset="1"/></linearGradient><style>.st0{fill:none}.st6{fill:#213b88}</style></defs><g style="clip-path:url(#clippath)"><path d="M372.2 60.22h378.82v641.97H372.2z" style="fill:url(#Grad10)"/></g><path style="clip-path:url(#clippath-1)" d="M623.75 277.89H33.05v145.68h590.7c36.71 0 66.47 29.77 66.47 66.47s-29.75 66.47-66.47 66.48H33.05V702.2h590.7c117.17 0 212.14-94.99 212.14-212.16S740.91 277.9 623.75 277.9" class="st6"/><g style="clip-path:url(#clippath-2)"><path d="M118.8 519.79h274.48v219.12H118.8z" style="fill:url(#Grad16)" transform="rotate(-20.17 256.041 629.344)"/></g><g style="clip-path:url(#clippath-3)"><path d="M21.96 241.16h274.48v219.12H21.96z" style="fill:url(#Grad18)" transform="rotate(-20.17 159.194 350.726)"/></g><g style="clip-path:url(#clippath-4)"><path d="M248.4 241.16h274.5v219.13H248.4z" style="fill:url(#Grad19)" transform="rotate(-20.17 385.641 350.718)"/></g><g style="clip-path:url(#clippath-5)"><path d="M345.23 519.79h274.48v219.12H345.23z" style="fill:url(#Grad17)" transform="rotate(-20.17 482.455 629.359)"/></g><path d="m95.48 60.22 107.31 306.33 117.59 335.63h153.9L356.69 366.55l-56.28-160.69L95.48 60.22z" class="st6"/><path style="clip-path:url(#clippath-6)" d="M95.48 60.22h378.8v641.97H95.48z" class="st6"/><path d="M33.05 53.57h1833.81v655.28H33.05z" class="st0"/><path d="M300.41 205.89H33.04V60.22h216.35l51.02" class="st6"/></svg>