<svg xml:space="preserve" viewBox="56.028000000000006 133.49514563106797 1235.284 291.0194174757282" width="1235.284" y="0px" x="0px" xmlns:xlink="http://www.w3.org/1999/xlink" xmlns="http://www.w3.org/2000/svg" id="Layer_1" version="1.1" style="max-height: 500px" height="291.0194174757282">
<path d="M916.000000,551.000000 &#10;&#9;C610.707092,551.000000 305.914154,551.000000 1.060613,551.000000 &#10;&#9;C1.060613,367.731384 1.060613,184.462769 1.060613,1.097068 &#10;&#9;C445.542999,1.097068 890.085999,1.097068 1334.814453,1.097068 &#10;&#9;C1334.814453,184.333176 1334.814453,367.666565 1334.814453,551.000000 &#10;&#9;C1195.462646,551.000000 1055.981323,551.000000 916.000000,551.000000 &#10;M1246.996704,329.201416 &#10;&#9;C1247.272095,328.224365 1247.547485,327.247345 1247.899048,326.000000 &#10;&#9;C1241.076294,326.000000 1234.617432,326.480865 1228.266479,325.858704 &#10;&#9;C1222.437744,325.287689 1219.502075,327.265717 1218.259155,333.260590 &#10;&#9;C1215.589233,339.188446 1211.168945,343.458282 1205.278931,345.966248 &#10;&#9;C1189.250732,352.791046 1173.814453,342.611206 1169.038696,328.295013 &#10;&#9;C1164.734375,315.392273 1164.283813,302.261078 1169.073975,289.408264 &#10;&#9;C1175.247070,272.845581 1185.460083,268.139099 1200.655029,270.257263 &#10;&#9;C1210.895264,271.684784 1216.427490,279.769165 1220.031982,289.041504 &#10;&#9;C1220.474976,290.181244 1221.692017,291.832550 1222.588013,291.856842 &#10;&#9;C1230.683838,292.075958 1238.787842,291.985016 1247.315918,291.985016 &#10;&#9;C1245.343140,274.528564 1237.729370,261.295898 1222.623047,253.406097 &#10;&#9;C1211.271362,247.477249 1199.008423,245.879227 1186.101318,247.887680 &#10;&#9;C1165.144775,251.148666 1151.342407,262.449402 1143.857544,282.247406 &#10;&#9;C1138.282104,296.994202 1138.074097,311.974213 1141.170898,326.997345 &#10;&#9;C1144.039673,340.913727 1150.869995,353.164154 1163.049072,360.838135 &#10;&#9;C1183.688354,373.843048 1205.432251,373.812256 1226.313232,361.651611 &#10;&#9;C1237.950317,354.874329 1245.187744,343.920258 1246.996704,329.201416 &#10;M234.469772,192.979980 &#10;&#9;C220.277847,184.425354 204.754807,179.897446 188.346695,179.114624 &#10;&#9;C169.778107,178.228729 152.194321,182.351410 135.858047,191.558167 &#10;&#9;C119.101433,201.001846 106.095871,214.064133 97.018143,230.989563 &#10;&#9;C86.604446,250.405899 83.843040,271.129364 87.010033,292.744720 &#10;&#9;C91.115501,320.765381 105.316277,342.979187 128.470886,358.523132 &#10;&#9;C155.172577,376.448273 184.624405,379.945435 215.441971,370.176849 &#10;&#9;C231.237518,365.169922 244.217285,355.925812 255.568527,344.003174 &#10;&#9;C272.001801,326.742737 280.457794,305.956329 281.734344,282.551270 &#10;&#9;C282.289154,272.379608 281.342102,261.666077 278.646881,251.867111 &#10;&#9;C271.796997,226.963150 257.560577,206.967163 234.469772,192.979980 &#10;M700.000000,319.500000 &#10;&#9;C700.000000,311.836029 699.774292,304.162720 700.089966,296.511780 &#10;&#9;C700.262146,292.338623 700.889099,288.059692 702.123535,284.080566 &#10;&#9;C704.780273,275.517395 711.252075,270.193359 718.335876,270.000122 &#10;&#9;C731.790588,269.633118 737.021729,272.225250 740.980957,282.649200 &#10;&#9;C742.786072,287.401855 743.796448,292.732391 743.868958,297.819275 &#10;&#9;C744.177307,319.474274 744.000000,341.136169 744.000000,362.795563 &#10;&#9;C744.000000,364.408691 744.000000,366.021820 744.000000,367.727173 &#10;&#9;C752.891052,367.727173 761.286621,367.727173 770.000000,367.727173 &#10;&#9;C770.000000,365.322815 769.974487,363.187164 770.003906,361.052277 &#10;&#9;C770.331116,337.305847 770.035095,313.528381 771.203674,289.823212 &#10;&#9;C772.107788,271.483429 789.150635,264.618164 802.661194,272.050842 &#10;&#9;C811.054138,276.668091 813.697144,285.331879 813.859131,294.133606 &#10;&#9;C814.279053,316.951538 814.000000,339.782318 814.000000,362.607971 &#10;&#9;C814.000000,364.357849 814.000000,366.107727 814.000000,367.616821 &#10;&#9;C823.118042,367.616821 831.518005,367.616821 838.999756,367.616821 &#10;&#9;C838.999756,338.819275 839.337097,310.401886 838.791748,282.001404 &#10;&#9;C838.630554,273.606750 835.393738,265.372314 829.417236,259.007690 &#10;&#9;C817.451294,246.264542 802.558594,245.238144 786.527649,248.793503 &#10;&#9;C777.042053,250.897232 769.471741,255.853485 762.963318,263.778198 &#10;&#9;C755.341248,252.279831 744.533142,247.393539 731.717285,247.080750 &#10;&#9;C719.043091,246.771484 708.265869,251.745834 699.278809,260.680756 &#10;&#9;C698.825195,257.880615 698.690430,255.216522 697.869812,252.783783 &#10;&#9;C697.480225,251.628983 695.809326,250.167145 694.671814,250.125351 &#10;&#9;C687.903931,249.876587 681.122253,250.002380 674.270020,250.002380 &#10;&#9;C674.270020,289.564911 674.270020,328.619537 674.270020,367.703918 &#10;&#9;C682.939270,367.703918 691.335449,367.703918 700.000000,367.703918 &#10;&#9;C700.000000,351.772919 700.000000,336.136475 700.000000,319.500000 &#10;M325.000000,232.500000 &#10;&#9;C325.000000,277.572906 325.000000,322.645813 325.000000,367.684723 &#10;&#9;C333.981567,367.684723 342.376862,367.684723 351.211609,367.684723 &#10;&#9;C351.211609,343.647949 351.211609,319.923523 351.211609,296.345093 &#10;&#9;C373.716705,296.345093 395.772644,296.345093 418.271210,296.345093 &#10;&#9;C418.271210,320.412384 418.271210,344.136841 418.271210,367.616638 &#10;&#9;C427.121155,367.616638 435.519745,367.616638 443.621246,367.616638 &#10;&#9;C443.621246,312.857300 443.621246,258.481689 443.621246,204.225952 &#10;&#9;C434.963531,204.225952 426.686066,204.225952 417.966003,204.225952 &#10;&#9;C417.966003,226.505066 417.966003,248.563828 417.966003,270.743225 &#10;&#9;C395.461731,270.743225 373.406952,270.743225 351.000000,270.743225 &#10;&#9;C351.000000,259.531036 351.000000,248.572815 351.000000,237.614594 &#10;&#9;C351.000000,226.514252 351.000000,215.413925 351.000000,204.296051 &#10;&#9;C342.057770,204.296051 333.663086,204.296051 325.000000,204.296051 &#10;&#9;C325.000000,213.560104 325.000000,222.530045 325.000000,232.500000 &#10;M571.025818,346.966370 &#10;&#9;C567.282288,344.908997 567.049622,341.362732 566.986938,337.673370 &#10;&#9;C566.682556,319.762177 566.859558,301.820923 565.812866,283.951996 &#10;&#9;C565.129028,272.277740 559.511902,262.622375 549.495117,255.826431 &#10;&#9;C542.152710,250.844940 534.107056,248.880783 525.359619,247.794861 &#10;&#9;C509.705414,245.851578 495.146515,247.832550 482.125397,257.034210 &#10;&#9;C470.944611,264.935303 466.895752,276.309631 466.976837,289.772705 &#10;&#9;C475.917816,289.772705 484.342041,289.772705 492.760986,289.772705 &#10;&#9;C493.568634,280.904816 496.792542,273.704010 505.810303,271.232819 &#10;&#9;C510.151947,270.043060 514.907104,270.060730 519.475586,270.054810 &#10;&#9;C535.378906,270.034241 543.627808,281.819733 540.249939,297.000000 &#10;&#9;C530.469604,297.000000 520.644897,297.234833 510.837097,296.928772 &#10;&#9;C502.354614,296.664062 494.224152,298.088043 486.389984,301.047638 &#10;&#9;C458.949097,311.414215 455.887848,342.282349 474.085175,359.297150 &#10;&#9;C486.809845,371.194885 502.849518,372.116852 519.142456,368.311951 &#10;&#9;C528.362549,366.158783 536.295715,361.374756 542.548706,353.863251 &#10;&#9;C549.123169,371.172791 561.170898,371.039459 578.812805,367.166809 &#10;&#9;C578.812805,360.175476 578.812805,353.204407 578.812805,346.423676 &#10;&#9;C576.382507,346.624512 574.132141,346.810455 571.025818,346.966370 &#10;M941.987366,359.519012 &#10;&#9;C946.822815,353.687164 953.079651,348.529572 956.226196,341.896576 &#10;&#9;C965.516663,322.312012 965.746948,301.652618 958.827087,281.309326 &#10;&#9;C954.136536,267.519958 944.901733,257.144653 931.007690,251.483902 &#10;&#9;C920.789001,247.320541 910.414185,246.338501 899.394836,247.850342 &#10;&#9;C882.968201,250.104034 870.628235,258.222351 862.477478,272.223145 &#10;&#9;C851.834900,290.504059 851.706543,310.453339 856.324341,330.308502 &#10;&#9;C859.750793,345.040894 867.805603,357.257721 882.114136,363.970367 &#10;&#9;C902.539490,373.552643 922.423950,372.644226 941.987366,359.519012 &#10;M1077.995117,282.762146 &#10;&#9;C1077.659302,281.347107 1077.346436,279.926147 1076.983887,278.517944 &#10;&#9;C1073.328613,264.316895 1065.345337,253.917816 1050.906616,249.491135 &#10;&#9;C1047.675049,248.500366 1044.101929,248.677933 1040.789673,247.884918 &#10;&#9;C1031.803955,245.733536 1023.225647,247.131592 1015.149231,251.081970 &#10;&#9;C1010.307495,253.450195 1005.943970,256.795868 1001.434631,259.658325 &#10;&#9;C1000.830566,256.455841 1000.216187,253.199005 999.667969,250.292694 &#10;&#9;C991.465637,250.292694 983.867004,250.292694 976.305359,250.292694 &#10;&#9;C976.305359,289.639374 976.305359,328.692566 976.305359,367.669098 &#10;&#9;C985.011658,367.669098 993.408508,367.669098 1002.000000,367.669098 &#10;&#9;C1002.000000,344.696716 1001.810547,322.052185 1002.105652,299.413971 &#10;&#9;C1002.205017,291.791840 1003.692688,284.228943 1008.603027,277.892365 &#10;&#9;C1014.442383,270.357025 1022.574402,269.613129 1031.269409,269.935883 &#10;&#9;C1039.790039,270.252258 1047.468994,274.839417 1049.883545,283.085754 &#10;&#9;C1051.961182,290.181213 1053.614380,297.648438 1053.818604,304.996765 &#10;&#9;C1054.355469,324.307526 1054.000000,343.643127 1054.000000,362.968811 &#10;&#9;C1054.000000,364.565033 1054.000000,366.161255 1054.000000,367.666382 &#10;&#9;C1062.683472,367.666382 1070.747314,367.666382 1077.999756,367.666382 &#10;&#9;C1077.999756,339.435547 1077.999756,311.542053 1077.995117,282.762146 &#10;M622.361877,293.134399 &#10;&#9;C625.793579,278.235291 633.065308,271.687866 649.608337,271.990936 &#10;&#9;C653.024170,272.053528 656.442200,272.000000 659.999451,272.000000 &#10;&#9;C659.999451,265.142853 660.162659,258.984497 659.868103,252.848160 &#10;&#9;C659.805725,251.548630 658.021423,249.211105 657.113708,249.250900 &#10;&#9;C650.126892,249.557220 642.815369,249.237091 636.293091,251.294312 &#10;&#9;C630.692688,253.060776 626.001526,257.710205 620.913879,261.081085 &#10;&#9;C620.251465,258.094086 619.466980,254.556931 618.730774,251.237122 &#10;&#9;C610.587036,251.237122 602.986633,251.237122 595.220581,251.237122 &#10;&#9;C595.220581,290.174500 595.220581,328.874573 595.220581,367.760315 &#10;&#9;C603.832581,367.760315 612.223145,367.760315 620.485352,367.760315 &#10;&#9;C621.007202,342.996735 621.523926,318.475739 622.361877,293.134399 &#10;M1099.000000,257.565247 &#10;&#9;C1099.000000,294.289032 1099.000000,331.012817 1099.000000,367.680634 &#10;&#9;C1107.996094,367.680634 1116.388428,367.680634 1124.696777,367.680634 &#10;&#9;C1124.696777,328.326538 1124.696777,289.292542 1124.696777,250.322693 &#10;&#9;C1115.997925,250.322693 1107.605713,250.322693 1099.000000,250.322693 &#10;&#9;C1099.000000,252.623825 1099.000000,254.603729 1099.000000,257.565247 &#10;M1111.503418,204.000000 &#10;&#9;C1107.082031,204.000000 1102.660645,204.000000 1098.304443,204.000000 &#10;&#9;C1098.304443,213.991150 1098.304443,223.370178 1098.304443,232.694794 &#10;&#9;C1107.658569,232.694794 1116.704956,232.694794 1125.695068,232.694794 &#10;&#9;C1125.695068,223.007523 1125.695068,213.628448 1125.695068,204.000000 &#10;&#9;C1121.093872,204.000000 1116.795288,204.000000 1111.503418,204.000000 &#10;z" stroke="none" opacity="1.000000" fill="#FFFFFF"/>
<path d="M234.739914,193.238068 &#10;&#9;C257.560577,206.967163 271.796997,226.963150 278.646881,251.867111 &#10;&#9;C281.342102,261.666077 282.289154,272.379608 281.734344,282.551270 &#10;&#9;C280.457794,305.956329 272.001801,326.742737 255.568527,344.003174 &#10;&#9;C244.217285,355.925812 231.237518,365.169922 215.441971,370.176849 &#10;&#9;C184.624405,379.945435 155.172577,376.448273 128.470886,358.523132 &#10;&#9;C105.316277,342.979187 91.115501,320.765381 87.010033,292.744720 &#10;&#9;C83.843040,271.129364 86.604446,250.405899 97.018143,230.989563 &#10;&#9;C106.095871,214.064133 119.101433,201.001846 135.858047,191.558167 &#10;&#9;C152.194321,182.351410 169.778107,178.228729 188.346695,179.114624 &#10;&#9;C204.754807,179.897446 220.277847,184.425354 234.739914,193.238068 &#10;M248.557632,246.051392 &#10;&#9;C243.233994,239.063721 238.442093,231.579590 232.477081,225.190750 &#10;&#9;C219.680008,211.484436 202.934402,205.586044 184.713242,205.222687 &#10;&#9;C167.901077,204.887405 152.834778,210.747589 139.108887,221.040817 &#10;&#9;C128.478958,229.012329 124.667847,239.209641 126.176323,251.354843 &#10;&#9;C128.802856,272.501862 138.550079,290.554901 153.329895,305.705231 &#10;&#9;C165.788834,318.476501 180.544006,327.815643 197.959045,332.476044 &#10;&#9;C215.479874,337.164734 229.795364,336.338318 241.074692,320.594818 &#10;&#9;C250.518250,307.413635 255.612366,292.880493 255.788467,276.954102 &#10;&#9;C255.903320,266.567505 253.550217,256.273987 248.557632,246.051392 &#10;z" stroke="none" opacity="1.000000" fill="#00479E"/>
<path d="M700.000000,320.000000 &#10;&#9;C700.000000,336.136475 700.000000,351.772919 700.000000,367.703918 &#10;&#9;C691.335449,367.703918 682.939270,367.703918 674.270020,367.703918 &#10;&#9;C674.270020,328.619537 674.270020,289.564911 674.270020,250.002380 &#10;&#9;C681.122253,250.002380 687.903931,249.876587 694.671814,250.125351 &#10;&#9;C695.809326,250.167145 697.480225,251.628983 697.869812,252.783783 &#10;&#9;C698.690430,255.216522 698.825195,257.880615 699.278809,260.680756 &#10;&#9;C708.265869,251.745834 719.043091,246.771484 731.717285,247.080750 &#10;&#9;C744.533142,247.393539 755.341248,252.279831 762.963318,263.778198 &#10;&#9;C769.471741,255.853485 777.042053,250.897232 786.527649,248.793503 &#10;&#9;C802.558594,245.238144 817.451294,246.264542 829.417236,259.007690 &#10;&#9;C835.393738,265.372314 838.630554,273.606750 838.791748,282.001404 &#10;&#9;C839.337097,310.401886 838.999756,338.819275 838.999756,367.616821 &#10;&#9;C831.518005,367.616821 823.118042,367.616821 814.000000,367.616821 &#10;&#9;C814.000000,366.107727 814.000000,364.357849 814.000000,362.607971 &#10;&#9;C814.000000,339.782318 814.279053,316.951538 813.859131,294.133606 &#10;&#9;C813.697144,285.331879 811.054138,276.668091 802.661194,272.050842 &#10;&#9;C789.150635,264.618164 772.107788,271.483429 771.203674,289.823212 &#10;&#9;C770.035095,313.528381 770.331116,337.305847 770.003906,361.052277 &#10;&#9;C769.974487,363.187164 770.000000,365.322815 770.000000,367.727173 &#10;&#9;C761.286621,367.727173 752.891052,367.727173 744.000000,367.727173 &#10;&#9;C744.000000,366.021820 744.000000,364.408691 744.000000,362.795563 &#10;&#9;C744.000000,341.136169 744.177307,319.474274 743.868958,297.819275 &#10;&#9;C743.796448,292.732391 742.786072,287.401855 740.980957,282.649200 &#10;&#9;C737.021729,272.225250 731.790588,269.633118 718.335876,270.000122 &#10;&#9;C711.252075,270.193359 704.780273,275.517395 702.123535,284.080566 &#10;&#9;C700.889099,288.059692 700.262146,292.338623 700.089966,296.511780 &#10;&#9;C699.774292,304.162720 700.000000,311.836029 700.000000,320.000000 &#10;z" stroke="none" opacity="1.000000" fill="#00479E"/>
<path d="M325.000000,232.000000 &#10;&#9;C325.000000,222.530045 325.000000,213.560104 325.000000,204.296051 &#10;&#9;C333.663086,204.296051 342.057770,204.296051 351.000000,204.296051 &#10;&#9;C351.000000,215.413925 351.000000,226.514252 351.000000,237.614594 &#10;&#9;C351.000000,248.572815 351.000000,259.531036 351.000000,270.743225 &#10;&#9;C373.406952,270.743225 395.461731,270.743225 417.966003,270.743225 &#10;&#9;C417.966003,248.563828 417.966003,226.505066 417.966003,204.225952 &#10;&#9;C426.686066,204.225952 434.963531,204.225952 443.621246,204.225952 &#10;&#9;C443.621246,258.481689 443.621246,312.857300 443.621246,367.616638 &#10;&#9;C435.519745,367.616638 427.121155,367.616638 418.271210,367.616638 &#10;&#9;C418.271210,344.136841 418.271210,320.412384 418.271210,296.345093 &#10;&#9;C395.772644,296.345093 373.716705,296.345093 351.211609,296.345093 &#10;&#9;C351.211609,319.923523 351.211609,343.647949 351.211609,367.684723 &#10;&#9;C342.376862,367.684723 333.981567,367.684723 325.000000,367.684723 &#10;&#9;C325.000000,322.645813 325.000000,277.572906 325.000000,232.000000 &#10;z" stroke="none" opacity="1.000000" fill="#00479E"/>
<path d="M571.453796,346.981384 &#10;&#9;C574.132141,346.810455 576.382507,346.624512 578.812805,346.423676 &#10;&#9;C578.812805,353.204407 578.812805,360.175476 578.812805,367.166809 &#10;&#9;C561.170898,371.039459 549.123169,371.172791 542.548706,353.863251 &#10;&#9;C536.295715,361.374756 528.362549,366.158783 519.142456,368.311951 &#10;&#9;C502.849518,372.116852 486.809845,371.194885 474.085175,359.297150 &#10;&#9;C455.887848,342.282349 458.949097,311.414215 486.389984,301.047638 &#10;&#9;C494.224152,298.088043 502.354614,296.664062 510.837097,296.928772 &#10;&#9;C520.644897,297.234833 530.469604,297.000000 540.249939,297.000000 &#10;&#9;C543.627808,281.819733 535.378906,270.034241 519.475586,270.054810 &#10;&#9;C514.907104,270.060730 510.151947,270.043060 505.810303,271.232819 &#10;&#9;C496.792542,273.704010 493.568634,280.904816 492.760986,289.772705 &#10;&#9;C484.342041,289.772705 475.917816,289.772705 466.976837,289.772705 &#10;&#9;C466.895752,276.309631 470.944611,264.935303 482.125397,257.034210 &#10;&#9;C495.146515,247.832550 509.705414,245.851578 525.359619,247.794861 &#10;&#9;C534.107056,248.880783 542.152710,250.844940 549.495117,255.826431 &#10;&#9;C559.511902,262.622375 565.129028,272.277740 565.812866,283.951996 &#10;&#9;C566.859558,301.820923 566.682556,319.762177 566.986938,337.673370 &#10;&#9;C567.049622,341.362732 567.282288,344.908997 571.453796,346.981384 &#10;M494.557739,321.963470 &#10;&#9;C486.691254,329.551941 488.136566,341.623657 499.611084,346.181061 &#10;&#9;C505.972961,348.707825 512.398865,348.614227 518.774475,346.920349 &#10;&#9;C533.123596,343.108093 542.459900,331.323639 540.555603,317.000000 &#10;&#9;C532.176270,317.000000 523.723999,317.228729 515.290405,316.930115 &#10;&#9;C508.092804,316.675262 501.311615,317.621948 494.557739,321.963470 &#10;z" stroke="none" opacity="1.000000" fill="#00479E"/>
<path d="M941.720215,359.774750 &#10;&#9;C922.423950,372.644226 902.539490,373.552643 882.114136,363.970367 &#10;&#9;C867.805603,357.257721 859.750793,345.040894 856.324341,330.308502 &#10;&#9;C851.706543,310.453339 851.834900,290.504059 862.477478,272.223145 &#10;&#9;C870.628235,258.222351 882.968201,250.104034 899.394836,247.850342 &#10;&#9;C910.414185,246.338501 920.789001,247.320541 931.007690,251.483902 &#10;&#9;C944.901733,257.144653 954.136536,267.519958 958.827087,281.309326 &#10;&#9;C965.746948,301.652618 965.516663,322.312012 956.226196,341.896576 &#10;&#9;C953.079651,348.529572 946.822815,353.687164 941.720215,359.774750 &#10;M884.036011,332.239929 &#10;&#9;C884.354492,332.807129 884.661499,333.381104 884.993042,333.940552 &#10;&#9;C890.855774,343.833527 899.437195,348.925842 911.015747,347.940460 &#10;&#9;C921.306030,347.064758 928.698120,341.504242 932.920227,332.195251 &#10;&#9;C940.203064,316.137726 939.842773,299.817078 932.379456,284.071869 &#10;&#9;C927.116333,272.968262 917.329712,268.894867 905.184265,269.961517 &#10;&#9;C895.498779,270.812134 889.097351,275.962494 884.935364,284.417297 &#10;&#9;C877.291321,299.945862 877.841797,315.644989 884.036011,332.239929 &#10;z" stroke="none" opacity="1.000000" fill="#00479E"/>
<path d="M1077.997437,283.205353 &#10;&#9;C1077.999756,311.542053 1077.999756,339.435547 1077.999756,367.666382 &#10;&#9;C1070.747314,367.666382 1062.683472,367.666382 1054.000000,367.666382 &#10;&#9;C1054.000000,366.161255 1054.000000,364.565033 1054.000000,362.968811 &#10;&#9;C1054.000000,343.643127 1054.355469,324.307526 1053.818604,304.996765 &#10;&#9;C1053.614380,297.648438 1051.961182,290.181213 1049.883545,283.085754 &#10;&#9;C1047.468994,274.839417 1039.790039,270.252258 1031.269409,269.935883 &#10;&#9;C1022.574402,269.613129 1014.442383,270.357025 1008.603027,277.892365 &#10;&#9;C1003.692688,284.228943 1002.205017,291.791840 1002.105652,299.413971 &#10;&#9;C1001.810547,322.052185 1002.000000,344.696716 1002.000000,367.669098 &#10;&#9;C993.408508,367.669098 985.011658,367.669098 976.305359,367.669098 &#10;&#9;C976.305359,328.692566 976.305359,289.639374 976.305359,250.292694 &#10;&#9;C983.867004,250.292694 991.465637,250.292694 999.667969,250.292694 &#10;&#9;C1000.216187,253.199005 1000.830566,256.455841 1001.434631,259.658325 &#10;&#9;C1005.943970,256.795868 1010.307495,253.450195 1015.149231,251.081970 &#10;&#9;C1023.225647,247.131592 1031.803955,245.733536 1040.789673,247.884918 &#10;&#9;C1044.101929,248.677933 1047.675049,248.500366 1050.906616,249.491135 &#10;&#9;C1065.345337,253.917816 1073.328613,264.316895 1076.983887,278.517944 &#10;&#9;C1077.346436,279.926147 1077.659302,281.347107 1077.997437,283.205353 &#10;z" stroke="none" opacity="1.000000" fill="#00479E"/>
<path d="M1246.833496,330.000397 &#10;&#9;C1245.187744,343.920258 1237.950317,354.874329 1226.313232,361.651611 &#10;&#9;C1205.432251,373.812256 1183.688354,373.843048 1163.049072,360.838135 &#10;&#9;C1150.869995,353.164154 1144.039673,340.913727 1141.170898,326.997345 &#10;&#9;C1138.074097,311.974213 1138.282104,296.994202 1143.857544,282.247406 &#10;&#9;C1151.342407,262.449402 1165.144775,251.148666 1186.101318,247.887680 &#10;&#9;C1199.008423,245.879227 1211.271362,247.477249 1222.623047,253.406097 &#10;&#9;C1237.729370,261.295898 1245.343140,274.528564 1247.315918,291.985016 &#10;&#9;C1238.787842,291.985016 1230.683838,292.075958 1222.588013,291.856842 &#10;&#9;C1221.692017,291.832550 1220.474976,290.181244 1220.031982,289.041504 &#10;&#9;C1216.427490,279.769165 1210.895264,271.684784 1200.655029,270.257263 &#10;&#9;C1185.460083,268.139099 1175.247070,272.845581 1169.073975,289.408264 &#10;&#9;C1164.283813,302.261078 1164.734375,315.392273 1169.038696,328.295013 &#10;&#9;C1173.814453,342.611206 1189.250732,352.791046 1205.278931,345.966248 &#10;&#9;C1211.168945,343.458282 1215.589233,339.188446 1218.979126,333.120392 &#10;&#9;C1228.329468,328.213318 1237.733643,330.492065 1246.833496,330.000397 &#10;z" stroke="none" opacity="1.000000" fill="#00479E"/>
<path d="M622.201294,293.544586 &#10;&#9;C621.523926,318.475739 621.007202,342.996735 620.485352,367.760315 &#10;&#9;C612.223145,367.760315 603.832581,367.760315 595.220581,367.760315 &#10;&#9;C595.220581,328.874573 595.220581,290.174500 595.220581,251.237122 &#10;&#9;C602.986633,251.237122 610.587036,251.237122 618.730774,251.237122 &#10;&#9;C619.466980,254.556931 620.251465,258.094086 620.913879,261.081085 &#10;&#9;C626.001526,257.710205 630.692688,253.060776 636.293091,251.294312 &#10;&#9;C642.815369,249.237091 650.126892,249.557220 657.113708,249.250900 &#10;&#9;C658.021423,249.211105 659.805725,251.548630 659.868103,252.848160 &#10;&#9;C660.162659,258.984497 659.999451,265.142853 659.999451,272.000000 &#10;&#9;C656.442200,272.000000 653.024170,272.053528 649.608337,271.990936 &#10;&#9;C633.065308,271.687866 625.793579,278.235291 622.201294,293.544586 &#10;z" stroke="none" opacity="1.000000" fill="#00479E"/>
<path d="M1099.000000,257.074432 &#10;&#9;C1099.000000,254.603729 1099.000000,252.623825 1099.000000,250.322693 &#10;&#9;C1107.605713,250.322693 1115.997925,250.322693 1124.696777,250.322693 &#10;&#9;C1124.696777,289.292542 1124.696777,328.326538 1124.696777,367.680634 &#10;&#9;C1116.388428,367.680634 1107.996094,367.680634 1099.000000,367.680634 &#10;&#9;C1099.000000,331.012817 1099.000000,294.289032 1099.000000,257.074432 &#10;z" stroke="none" opacity="1.000000" fill="#00479E"/>
<path d="M1112.000122,204.000000 &#10;&#9;C1116.795288,204.000000 1121.093872,204.000000 1125.695068,204.000000 &#10;&#9;C1125.695068,213.628448 1125.695068,223.007523 1125.695068,232.694794 &#10;&#9;C1116.704956,232.694794 1107.658569,232.694794 1098.304443,232.694794 &#10;&#9;C1098.304443,223.370178 1098.304443,213.991150 1098.304443,204.000000 &#10;&#9;C1102.660645,204.000000 1107.082031,204.000000 1112.000122,204.000000 &#10;z" stroke="none" opacity="1.000000" fill="#00479E"/>
<path d="M1246.915039,329.600891 &#10;&#9;C1237.733643,330.492065 1228.329468,328.213318 1219.291992,332.969177 &#10;&#9;C1219.502075,327.265717 1222.437744,325.287689 1228.266479,325.858704 &#10;&#9;C1234.617432,326.480865 1241.076294,326.000000 1247.899048,326.000000 &#10;&#9;C1247.547485,327.247345 1247.272095,328.224365 1246.915039,329.600891 &#10;z" stroke="none" opacity="1.000000" fill="#00479E"/>
<path d="M248.757553,246.384277 &#10;&#9;C253.550217,256.273987 255.903320,266.567505 255.788467,276.954102 &#10;&#9;C255.612366,292.880493 250.518250,307.413635 241.074692,320.594818 &#10;&#9;C229.795364,336.338318 215.479874,337.164734 197.959045,332.476044 &#10;&#9;C180.544006,327.815643 165.788834,318.476501 153.329895,305.705231 &#10;&#9;C138.550079,290.554901 128.802856,272.501862 126.176323,251.354843 &#10;&#9;C124.667847,239.209641 128.478958,229.012329 139.108887,221.040817 &#10;&#9;C152.834778,210.747589 167.901077,204.887405 184.713242,205.222687 &#10;&#9;C202.934402,205.586044 219.680008,211.484436 232.477081,225.190750 &#10;&#9;C238.442093,231.579590 243.233994,239.063721 248.757553,246.384277 &#10;M235.089279,266.470886 &#10;&#9;C233.464325,256.150208 228.624527,247.277847 221.409821,240.069397 &#10;&#9;C202.515610,221.191589 171.764954,219.453812 150.814529,235.753494 &#10;&#9;C144.428940,240.721573 140.862350,247.104568 140.916107,255.607925 &#10;&#9;C141.026276,273.035248 147.968552,287.573242 159.566895,299.906250 &#10;&#9;C169.991684,310.991333 183.187088,317.782593 198.248566,319.811951 &#10;&#9;C209.677658,321.351898 219.588608,318.595612 226.862015,307.941284 &#10;&#9;C235.502075,295.285065 237.179214,281.704041 235.089279,266.470886 &#10;z" stroke="none" opacity="1.000000" fill="#FFFFFF"/>
<path d="M494.820984,321.689056 &#10;&#9;C501.311615,317.621948 508.092804,316.675262 515.290405,316.930115 &#10;&#9;C523.723999,317.228729 532.176270,317.000000 540.555603,317.000000 &#10;&#9;C542.459900,331.323639 533.123596,343.108093 518.774475,346.920349 &#10;&#9;C512.398865,348.614227 505.972961,348.707825 499.611084,346.181061 &#10;&#9;C488.136566,341.623657 486.691254,329.551941 494.820984,321.689056 &#10;z" stroke="none" opacity="1.000000" fill="#FFFFFF"/>
<path d="M883.974854,331.853760 &#10;&#9;C877.841797,315.644989 877.291321,299.945862 884.935364,284.417297 &#10;&#9;C889.097351,275.962494 895.498779,270.812134 905.184265,269.961517 &#10;&#9;C917.329712,268.894867 927.116333,272.968262 932.379456,284.071869 &#10;&#9;C939.842773,299.817078 940.203064,316.137726 932.920227,332.195251 &#10;&#9;C928.698120,341.504242 921.306030,347.064758 911.015747,347.940460 &#10;&#9;C899.437195,348.925842 890.855774,343.833527 884.993042,333.940552 &#10;&#9;C884.661499,333.381104 884.354492,332.807129 883.974854,331.853760 &#10;z" stroke="none" opacity="1.000000" fill="#FFFFFF"/>
<path d="M235.371490,266.811554 &#10;&#9;C237.179214,281.704041 235.502075,295.285065 226.862015,307.941284 &#10;&#9;C219.588608,318.595612 209.677658,321.351898 198.248566,319.811951 &#10;&#9;C183.187088,317.782593 169.991684,310.991333 159.566895,299.906250 &#10;&#9;C147.968552,287.573242 141.026276,273.035248 140.916107,255.607925 &#10;&#9;C140.862350,247.104568 144.428940,240.721573 150.814529,235.753494 &#10;&#9;C171.764954,219.453812 202.515610,221.191589 221.409821,240.069397 &#10;&#9;C228.624527,247.277847 233.464325,256.150208 235.371490,266.811554 &#10;M206.629059,290.875031 &#10;&#9;C209.499878,284.357880 211.201584,277.819794 209.195862,270.552856 &#10;&#9;C204.936127,255.119324 188.611816,246.352600 172.230515,253.307983 &#10;&#9;C163.167313,257.156158 160.821960,263.243927 165.017075,272.154541 &#10;&#9;C169.384964,281.432098 176.026566,288.689697 184.771927,293.935455 &#10;&#9;C195.043518,300.096710 199.229111,299.505249 206.629059,290.875031 &#10;z" stroke="none" opacity="1.000000" fill="#00479E"/>
<path d="M206.349731,291.136017 &#10;&#9;C199.229111,299.505249 195.043518,300.096710 184.771927,293.935455 &#10;&#9;C176.026566,288.689697 169.384964,281.432098 165.017075,272.154541 &#10;&#9;C160.821960,263.243927 163.167313,257.156158 172.230515,253.307983 &#10;&#9;C188.611816,246.352600 204.936127,255.119324 209.195862,270.552856 &#10;&#9;C211.201584,277.819794 209.499878,284.357880 206.349731,291.136017 &#10;z" stroke="none" opacity="1.000000" fill="#FFFFFF"/>
</svg>