<svg width="845" height="199" viewBox="0 0 845 199" fill="none" xmlns="http://www.w3.org/2000/svg">
<path d="M531.744 78.668H587.5L569.925 118.84H513.332L531.744 78.668Z" fill="black"/>
<path d="M531.744 78.668H587.5L569.925 118.84H513.332L531.744 78.668Z" fill="url(#paint0_linear_2367_1289)"/>
<path d="M845 198.412L755.79 0.03125H715.552L800.506 198.412H845Z" fill="black"/>
<mask id="mask0_2367_1289" style="mask-type:alpha" maskUnits="userSpaceOnUse" x="715" y="0" width="130" height="199">
<path d="M845 198.416L755.79 0.0351562H715.552L800.506 198.416H845Z" fill="#BBACAC"/>
</mask>
<g mask="url(#mask0_2367_1289)">
<path d="M735.15 46.4753L756.275 -2.81641L778.809 47.8836L759.092 102.809L735.15 46.4753Z" fill="url(#paint1_linear_2367_1289)"/>
</g>
<path d="M626.015 198.424L715.213 0.0429688H755.469L670.509 198.424H626.015Z" fill="black"/>
<path d="M243.745 198.424V0.0429688H321.113C383.461 0.0429688 426.538 42.8365 426.538 98.6666V99.2334C426.538 155.063 383.461 198.424 321.113 198.424H243.745ZM243.745 159.031H321.113C356.822 159.031 380.911 134.942 380.911 99.8002V99.2334C380.911 64.0916 356.822 39.4357 321.113 39.4357H243.745V159.031Z" fill="black"/>
<path d="M606.67 198.381L623.504 158.988V0H546.135C483.787 0 440.71 42.7936 440.71 98.6236V99.1904C440.71 155.02 483.787 198.381 546.135 198.381H606.67ZM623.504 158.988H546.135C510.427 158.988 486.338 134.899 486.338 99.7572V99.1904C486.338 64.0487 510.427 39.3928 546.135 39.3928H623.504V158.988Z" fill="black"/>
<path d="M0 198.416V0.0351562H43.6438V198.416H0Z" fill="black"/>
<path d="M180.263 198.416V0.0351562H223.906V198.416H180.263Z" fill="black"/>
<path fill-rule="evenodd" clip-rule="evenodd" d="M180.293 136.704L43.6553 0.0664062L43.645 0.0767138V61.7777L180.275 198.408L180.293 198.39V136.704Z" fill="black"/>
<mask id="mask1_2367_1289" style="mask-type:alpha" maskUnits="userSpaceOnUse" x="43" y="0" width="138" height="199">
<path fill-rule="evenodd" clip-rule="evenodd" d="M180.293 136.704L43.6553 0.0664062L43.645 0.0767138V61.7777L180.275 198.408L180.293 198.39V136.704Z" fill="#BBACAC"/>
</mask>
<g mask="url(#mask1_2367_1289)">
<path d="M84.5 -5.63281H42.25V135.201H84.5V-5.63281Z" fill="url(#paint2_linear_2367_1289)"/>
<path d="M138.017 59.1484H180.267V199.982H138.017V59.1484Z" fill="url(#paint3_linear_2367_1289)"/>
</g>
<defs>
<linearGradient id="paint0_linear_2367_1289" x1="568.967" y1="78.866" x2="550.416" y2="118.84" gradientUnits="userSpaceOnUse">
<stop stop-opacity="0.1"/>
<stop offset="1" stop-opacity="0"/>
</linearGradient>
<linearGradient id="paint1_linear_2367_1289" x1="740.784" y1="19.7169" x2="759.092" y2="46.4753" gradientUnits="userSpaceOnUse">
<stop stop-opacity="0.1"/>
<stop offset="1" stop-opacity="0"/>
</linearGradient>
<linearGradient id="paint2_linear_2367_1289" x1="42.25" y1="48.7484" x2="84.4991" y2="50.1708" gradientUnits="userSpaceOnUse">
<stop stop-opacity="0.1"/>
<stop offset="1" stop-opacity="0"/>
</linearGradient>
<linearGradient id="paint3_linear_2367_1289" x1="180.267" y1="113.53" x2="138.018" y2="114.952" gradientUnits="userSpaceOnUse">
<stop stop-opacity="0.1"/>
<stop offset="1" stop-opacity="0"/>
</linearGradient>
</defs>
</svg>
