<?xml version="1.0" encoding="UTF-8"?><svg id="Layer_1" xmlns="http://www.w3.org/2000/svg" viewBox="0 0 5669.29 1116.93"><defs><style>.cls-1{fill:#e83c49;}.cls-1,.cls-2{stroke-width:0px;}.cls-2{fill:#1d1d1b;}</style></defs><polygon class="cls-1" points="91.78 116.05 91.78 294.14 311.58 294.14 311.58 993.91 545.24 993.91 545.24 294.14 752.42 294.14 776.41 116.05 91.78 116.05"/><polygon class="cls-1" points="1687.11 116.05 1687.11 448.22 1454.7 448.22 1454.7 116.05 1221.01 116.05 1221.01 993.91 1454.7 993.91 1454.7 628.87 1687.11 628.87 1687.11 993.91 1920.79 993.91 1920.79 116.05 1687.11 116.05"/><polygon class="cls-1" points="2434.86 116.05 2434.86 993.91 2988.09 993.91 2988.09 828.45 2668.54 828.45 2668.54 628.87 2930 628.87 2930 468.46 2668.54 468.46 2668.54 281.51 2967.9 281.51 2991.89 116.05 2434.86 116.05"/><polygon class="cls-2" points="3654.17 474.85 3654.17 317.57 3535.3 317.57 3535.3 474.85 3459 474.85 3459 115.67 3535.3 115.67 3535.3 257.37 3654.17 257.37 3654.17 115.67 3730.46 115.67 3730.46 474.85 3654.17 474.85"/><path class="cls-2" d="m3878.63,268.53c-9.18,14.71-13.76,37.62-13.76,68.78s4.58,54.06,13.76,68.76c9.18,14.71,22.91,22.07,41.27,22.07s32.09-7.36,41.27-22.07c9.18-14.71,13.76-37.64,13.76-68.76s-4.53-54.07-13.49-68.78c-9.02-14.71-22.67-22.05-41-22.05s-32.62,7.34-41.8,22.05m138.34-38.42c23.16,25.79,34.77,61.51,34.77,107.2,0,29.04-5.27,54.57-15.84,76.55-10.55,21.98-25.79,39.01-45.67,51.13-19.89,12.1-43.35,18.16-70.33,18.16-41.18,0-73.45-12.89-96.79-38.66-23.37-25.79-35.05-61.51-35.05-107.18,0-29.08,5.27-54.6,15.83-76.57,10.55-21.98,25.79-39,45.67-51.13,19.89-12.1,43.52-18.16,70.86-18.16,41.16,0,73.34,12.89,96.54,38.66"/><path class="cls-2" d="m4333.05,474.85h-63.85l-3.61-36.85c-9.71,15.24-21.47,26.56-35.3,33.99-13.84,7.43-29.94,11.15-48.3,11.15-24.91,0-43.93-7.52-57.09-22.56-13.16-15.06-19.73-36.07-19.73-63.07v-197.75h73.71v188.41c0,14.53,2.43,24.82,7.27,30.88,4.83,6.06,12.47,9.09,22.83,9.09,19.73,0,36.51-11.94,50.36-35.83v-192.55h73.7v275.09Z"/><path class="cls-2" d="m4596.71,224.67l-28.02,42.04c-23.2-14.53-46.04-21.79-68.5-21.79-12.12,0-21.47,2.25-28.04,6.75-6.55,4.49-9.86,10.55-9.86,18.16,0,5.55,1.48,10.22,4.42,14.02,2.94,3.8,8.46,7.43,16.59,10.9,8.14,3.45,20.33,7.61,36.6,12.45,29.08,7.96,50.69,18.6,64.87,31.92,14.2,13.32,21.29,31.58,21.29,54.76,0,18.34-5.28,34.26-15.85,47.75-10.53,13.49-24.82,23.8-42.78,30.88-18,7.1-38.08,10.64-60.22,10.64s-44.3-3.54-63.34-10.64c-19.04-7.08-35.28-16.87-48.79-29.33l36.34-40.48c23.16,18,47.75,26.98,73.71,26.98,13.83,0,24.83-2.68,32.97-8.03,8.1-5.37,12.19-12.73,12.19-22.07,0-7.27-1.58-12.96-4.7-17.14-3.08-4.16-8.81-8.03-17.1-11.66-8.3-3.65-21.28-7.87-38.93-12.72-27.71-7.61-48.21-18.42-61.51-32.44-13.33-14.02-19.99-31.41-19.99-52.15,0-15.59,4.51-29.59,13.51-42.06,9-12.45,21.68-22.21,38.13-29.31,16.43-7.1,35.56-10.66,57.35-10.66,38.75,0,71.99,11.08,99.66,33.22"/><path class="cls-2" d="m4813.68,310.32c0-45.69-16.45-68.52-49.32-68.52-15.22,0-27.05,5.62-35.56,16.86-8.47,11.26-13.58,29.5-15.31,54.76h100.19v-3.1Zm71.62,49.3h-171.8c2.43,24.91,9.18,42.57,20.26,52.95,11.06,10.37,26.12,15.57,45.16,15.57,11.77,0,22.83-1.9,33.22-5.72,10.38-3.79,21.63-9.85,33.73-18.16l30.63,41.52c-30.81,24.92-65.58,37.38-104.33,37.38-43.26,0-76.5-12.98-99.68-38.93-23.16-25.94-34.77-61.07-34.77-105.36,0-28.02,4.95-53.19,14.8-75.51,9.86-22.32,24.22-39.88,43.08-52.7,18.86-12.79,41.27-19.2,67.21-19.2,39.12,0,69.56,12.29,91.35,36.85,21.82,24.57,32.71,58.85,32.71,102.78,0,3.45-.51,12.98-1.57,28.55"/><path class="cls-2" d="m3531.4,787.57c-9.18,14.71-13.76,37.62-13.76,68.78s4.58,54.06,13.76,68.76c9.18,14.73,22.91,22.07,41.27,22.07s32.09-7.34,41.27-22.07c9.16-14.71,13.74-37.62,13.74-68.76s-4.51-54.07-13.47-68.78c-9.02-14.71-22.69-22.05-41-22.05s-32.62,7.34-41.8,22.05m138.34-38.42c23.16,25.79,34.77,61.51,34.77,107.2,0,29.06-5.27,54.57-15.84,76.55-10.55,21.98-25.79,39.01-45.69,51.13-19.89,12.1-43.33,18.16-70.31,18.16-41.2,0-73.45-12.89-96.79-38.66-23.37-25.77-35.05-61.51-35.05-107.18,0-29.08,5.27-54.58,15.83-76.57,10.55-21.96,25.77-39,45.67-51.13,19.89-12.1,43.52-18.16,70.86-18.16,41.16,0,73.34,12.89,96.54,38.66"/><path class="cls-2" d="m3851.65,664.81c-5.37,5.9-8.05,15.41-8.05,28.55v25.43h65.42l-8.31,51.91h-57.1v223.18h-73.71v-223.18h-43.58v-51.91h43.58v-27.51c0-26.63,8.75-48.35,26.21-65.14,17.49-16.79,42.33-25.19,74.49-25.19,25.63,0,49.83,5.55,72.69,16.63l-20.26,48.79c-14.87-6.92-29.77-10.39-44.61-10.39-12.47,0-21.4,2.94-26.75,8.82"/><polygon class="cls-2" points="4070.93 634.72 4070.93 993.88 4286.32 993.88 4286.32 937.83 4147.25 937.83 4147.25 838.7 4260.38 838.7 4260.38 783.66 4147.25 783.66 4147.25 690.25 4276.99 690.25 4285.28 634.72 4070.93 634.72"/><polygon class="cls-2" points="4485.65 718.8 4430.1 936.28 4375.6 718.8 4295.67 718.8 4385.47 993.89 4473.18 993.89 4561.45 718.8 4485.65 718.8"/><path class="cls-2" d="m4752.45,829.36c0-45.69-16.45-68.52-49.32-68.52-15.24,0-27.07,5.62-35.56,16.86-8.47,11.26-13.58,29.5-15.31,54.76h100.19v-3.1Zm71.62,49.3h-171.8c2.43,24.91,9.18,42.57,20.26,52.95,11.06,10.37,26.12,15.57,45.14,15.57,11.77,0,22.84-1.9,33.24-5.71,10.38-3.8,21.61-9.86,33.73-18.18l30.61,41.52c-30.79,24.92-65.56,37.38-104.31,37.38-43.26,0-76.5-12.98-99.69-38.93-23.14-25.94-34.77-61.07-34.77-105.36,0-28.02,4.95-53.19,14.81-75.51,9.86-22.32,24.2-39.88,43.08-52.7,18.85-12.79,41.27-19.2,67.21-19.2,39.1,0,69.54,12.29,91.33,36.87,21.82,24.55,32.73,58.83,32.73,102.76,0,3.47-.53,12.98-1.57,28.55"/><path class="cls-2" d="m5089.29,732.56c13.49,14.71,20.26,35.03,20.26,60.98v200.36h-73.7v-187.9c0-14.87-2.54-25.35-7.52-31.39-5.04-6.06-12.56-9.09-22.6-9.09s-19.82,3.21-28.27,9.6c-8.51,6.41-16.71,16.01-24.68,28.82v189.96h-73.7v-275.09h63.85l5.69,34.79c11.41-14.2,23.95-24.94,37.64-32.2,13.67-7.26,29.15-10.9,46.46-10.9,24.2,0,43.08,7.36,56.56,22.07"/><path class="cls-2" d="m5344.15,980.92c-10.04,6.92-21.37,12.21-34.01,15.83-12.61,3.63-25.17,5.44-37.61,5.44-28.39-.35-49.86-8.47-64.38-24.39-14.53-15.91-21.79-39.28-21.79-70.07v-137.03h-41.02v-51.91h41.02v-60.2l73.69-8.81v69.01h63.32l-7.27,51.91h-56.05v135.48c0,13.14,2.25,22.67,6.73,28.55,4.53,5.87,11.43,8.81,20.77,8.81s19.74-3.12,31.14-9.34l25.45,46.71Z"/><path class="cls-2" d="m5567.83,743.71l-28.02,42.04c-23.2-14.53-46.03-21.79-68.5-21.79-12.12,0-21.47,2.25-28.04,6.73-6.55,4.51-9.85,10.57-9.85,18.18,0,5.53,1.46,10.22,4.4,14.02,2.94,3.8,8.46,7.43,16.59,10.89,8.14,3.47,20.33,7.63,36.6,12.47,29.06,7.96,50.69,18.6,64.89,31.92,14.18,13.32,21.28,31.58,21.28,54.76,0,18.34-5.28,34.26-15.83,47.75-10.55,13.49-24.83,23.8-42.82,30.88-17.98,7.1-38.05,10.64-60.2,10.64s-44.3-3.54-63.34-10.64c-19.04-7.08-35.28-16.87-48.79-29.33l36.34-40.48c23.16,18,47.75,26.98,73.71,26.98,13.83,0,24.83-2.68,32.97-8.03,8.1-5.37,12.19-12.73,12.19-22.07,0-7.27-1.57-12.98-4.7-17.14-3.08-4.16-8.81-8.05-17.1-11.66-8.3-3.65-21.28-7.87-38.93-12.73-27.69-7.59-48.21-18.42-61.51-32.43-13.32-14.02-19.99-31.41-19.99-52.15,0-15.59,4.51-29.59,13.51-42.06,9-12.45,21.68-22.21,38.13-29.31,16.43-7.1,35.56-10.66,57.35-10.66,38.75,0,71.99,11.08,99.66,33.22"/></svg>