<?xml version="1.0" encoding="UTF-8"?>
<svg id="Layer_2" data-name="Layer 2" xmlns="http://www.w3.org/2000/svg" viewBox="0 0 512.22 274.5">
  <defs>
    <style>
      .cls-1 {
        fill: #00a650;
      }

      .cls-2 {
        fill: #ed1c24;
      }

      .cls-3 {
        fill: #0994dc;
      }

      .cls-4 {
        fill: #fab20b;
      }
    </style>
  </defs>
  <g id="Layer_1-2" data-name="Layer 1">
    <g>
      <g>
        <path class="cls-3" d="M447.57,113.43c2.73,1.21,2.45,4.05,4.8,5.46,2.62,4.47,5.6,9.55,3.23,15.13,1.68,7.73-5.29,10.63-8.39,16.58-1.91.75-3.09,3.4-5.72,2.27-1.47,1.21-3.68,1.39-5.34,1.07-.71,1.25-2.27.09-3.15.83-11.42.97-18.38-8.84-25.98-15.9-1.08-1.34-2.66-1.42-3.97-2.92-1.89-.06-3.22-2.33-5.25-1.14-1.54.86-2.97,1.93-4.77,2-.4,1.29-2.17.25-1.93,1.81-3.52.7-2.06,6.16-6.42,4.79-1.66.58-2.09-1.44-3.39-1.67.29-1.71-.38-2.62.45-4.05,2.58-1.27,5.1-3.34,7.37-4.74.41-1.24,2.4-1.24,3.52-2.06.33-.52.88-.5,1.26-.93,3.64.48,7.88-.47,10.9,1.34,3.6,1.24,7.21,4.91,10.05,7.21,2.61,3.62,6.14,8.25,10.29,9.13.95,2.57,4.76,1.42,7.13,2.13.53-.1,1.19-.78,1.55-.27,1.46-.48,3.57,0,4.41-1.43,1.83.13,3.04-1.47,4.73-1.71.43-.33.49-1.29,1.28-.89,1.8-1.88,4.91-3.72,4.94-6.7,1.54-1.29-.15-2.89.44-4.66,1.54-5.33-.8-9.94-3.23-14.16-2.07-1.12-4.3-3.01-6.71-3.99-4.8-.31-10.68-.62-12.92,2.99-.17,2.75-3.99,2.13-2.68,5.51-.71,3.87,2.87,5.12,4.73,7.67,2.98-.92,4.14,2.15,7.16,1.21,1.67-.79,2.56-2.55,3.53-3.95-.45-1.18-1.13-2.29-.8-3.78,1.56-.06.71-2.02,2.26-2.1,1.57-.15.86,1.63,1.8,2.25,1.43,1.57,1.26,4.68.68,6.89-1.01.39-.55,1.41-.7,2.17-1.84,2.46-4.42,4.38-7.34,4.73-5.79-.6-10.35-2.6-13.77-7.67-1.58-2.05-3.44-4.92-2.23-7.9.29.12.43-.11.63-.25-1.25-1.28,1.21-2.05.41-3.12,1.54-3.92,4.49-7.76,8.76-9.06,2.74,1.07,4.85-1.58,7.8-.99,3.55.9,7.14,1.72,10.55,2.87"/>
        <path class="cls-3" d="M377.88,144.24c3.39,3.09,8.72,3.36,13.09,2.2,3.78-1.08,5.73-4.53,9.08-6.55,1.1,0,1.7,1.2,2.8,1.25-3.32,3.86-5.69,8.12-10.62,9.65-3.44.6-7.46,1.62-10.93.34-2.93-.16-4.37-1.91-6.87-3.12v-.62c-2.17-2.07-3.64-3.84-4.99-5.95-1.26-.93-1.22-1.87-2.47-2.5-.5-2.08-2.81-3.66-4.39-4.99-1.86-1.92-5.21-1.51-8.14-1.57-5.36-.17-7.33,6.54-11.83,7.81-.57,1.16-2.26,1.07-2.19,2.51,4.99,2.13,6.8-3.79,10.61-4.72,4.63-.76,8.42,1.84,10.6,5.63,1.03,1.74,3.74,3.27,3.14,5.96-.69.53-1.54.68-2.51.58-2.84-2.03-5.73-4.62-8.1-7.16-2-.18-3.33,1.35-5.29,1.24-2.36,1.25-3.3,3.9-6.25,3.77-2.71,0-4.96-1.14-7.51-1.57-.64-1.14-2.06-.4-3.1-.64-1.91-2.64-2.9-6.24-4.38-9.38-.94-.79-.58-2.14-1.86-2.79-1.43-.77-3.22.83-3.44-1.56-5.02-.25-8.06,3.57-9.99,7.49-.08,2.6.27,5.59,2.8,6.55,1.31,1.71,4.19.84,4.67,3.15,1.46-.58,3.35-.04,4.39-1.59.31-2.25-.3-4.12-1.87-5.6-2.51-1.55-3.89,1.53-6.23,1.24-.39.66-1.05.71-1.58.31-1.41-.38.21-1.46-.3-2.48,2.04-3.65,6.62-3.36,10.29-2.83,3.49,1.03,3.34,5.46,5.61,7.5.85,3.8-2.7,5.55-4.66,7.81-3.57,3.16-7.3-.67-11.24-.34-2.06-.4-3.79-1.68-5.32-3.4-2.29-3.88-2.43-9.79-.94-14.03.79-.08.97-.94.94-1.58,4.03-3.99,9.79-7.38,16.25-5.94,6.37,1.99,6.55,9.28,10.28,13.74.34.35.67.83,1.24.63.58-.19-.68-1.71.63-1.26,1.01-2.2,1.9-4.77,4.05-6.23.06-1.25,1.47-1.87,2.19-2.83,1.46-.05,2-2.7,4.04-2.17,1.41-2.84,5.06-1.42,7.18-3.1,11.86-1.68,16.44,10.25,23.11,17.14"/>
        <path class="cls-4" d="M389.95,9.77c.5,3.64,2.89,6.9,1.54,10.91-.89.56-.82,1.73-1.26,2.2-.8,1.65-.71,3.71-2.47,4.98-.83,2.25-3.51,3.48-4.71,5.03-4.64,3.75-10.99,4.96-17.15,3.41-2.76-.09-3.42-.64-5.22-2-.94-1.17-2.68-2.96-3.28-3.5-.89-.8-.76-2.67-1.17-4.48-.79-2.13,0-3.74,0-5.63-1.4-1.87-2.34-3.94-2.79-6.24,1.1-3.57,4.64-4.89,7.35-7.24,5.13-4.46,12.52-9.71,20.12-5.87,3.93,1.89,6.32,4.97,9.05,8.44"/>
        <path class="cls-2" d="M411.22,6.74c1.83,1.98,3.62,4.23,5.35,6.51,1.77.37,2.54-1.56,4.06-1.85,1.33-1.29,2.91-3.28,4.98-3.43,2.02.37,2.69,1.92,4.4,3.11.03,1.41,1.31,2.62,2.15,3.44,3.46-.75,6.82-2.56,10.43-2.87,2.14,2.81-.06,6.58-.73,9.42-.99,3.47-2.93,5.77-4.37,9.04.07,1.78-1.39,2.94-2.2,4.36-.46,2.36-1.39,4.25-2.82,5.62.28,1.74-1.76,1.78-1.55,3.4-3.95,3.64-4.35,8.66-8.43,12.22-1.6,2.75-4.16,4.58-6.24,6.86-1.77,2.89-5,2.97-7.16,6.25-1.42.16-2.19,1.97-3.47,2.47-2.33,3.06.49,6.28,0,9.69,2.26,3.44-.16,7.29-.31,10.93-.69,1.66-1.78,2.36-2.47,4.06.17,4.1,5.59,6.92,7.67,7.42.84.1,1.04.29,1.36.84.02.66-2.58,1.57-3.81,3.58.46,1.87,3.65,2.47,4.1,3.67-1.07,1.47-4.08,1.72-4.61,3.02,1.08,1.44,4.64,1.56,5.86,2.75.2,1.63-2.03,1.16-2.78,2.11-6.44,1.24-13.41,1.24-19.35-.94-4.85-.65-9.36,1.07-14.06,1.57-2.03-.33-2.14,1.05-3.96.05-.36.02-.67-.27-1.31-.05-.9,1.18-3.52-2.51-3.44-4.35,1-1.39-.83-4.17,1.55-4.71,1.38-2.11,2.73-4.99,1.24-7.47-3.95-3.53-2.66-9.23-4.97-13.41.36-3.59-.53-7.43,1.55-10.93-.24-.61.42-1.11.63-1.28,2.06-5.5,7.45-10.03,6.23-16.52-.79-1.58.04-1.97-.42-3.06-.36-1.85-1.26-2.59-.18-4.75,1.56-7.12,9.76-8.19,14.97-12.17,5.95-1.3,8.87-7.99,11.87-12.5-.12-.46.09-1.56.61-2.15,3.2-2.64,2.61-7.89,5.3-11.27-.29-1.18.44-1.94.94-2.79.18-2.2.96-4.91,1.81-6.84.69-.17,1.22.21,1.58.95"/>
        <path class="cls-1" d="M326.56,17.14c4.71,5.04,7.05,13.38,12.83,17.15,1.94,3.14,5.5,5.07,9.07,5.6,1.92,2.49,5.83,1.46,8.1,3.74,2.8-.82,3.07,2.48,5.62,2.2,1.16,1.67,2.76,2.89,3.45,5.01,1,6.28-4.16,9.99-4.07,15.9-3.18,6.49.65,13.14.29,19.99.17,1.76-.13,3.3-.92,4.67-.08,5.81-3.95,9.72-7.5,13.71-1.29,4.04,1.56,9.68-2.17,12.81-1.7.03-2.96,1.26-4.69,1.26-2.95,1.02-6.85.65-9.98.3-1.07-1.46-3.49.35-4.36-1.56-1.53-1.05-4.09-.58-5.65-.63-3.92-.39-7.4.13-11.71-.38-1.43.27-2.5.16-2.8.08-1.34-.78.37-2.4,1.33-3.01,1.61-.88,1.5-.8,2.15-1.43.41-1.73-3.4-1.39-2.92-3.16,1.2-.86,4.27-1.75,3.86-3.59-.7-2.22-3.95-2.62-4.31-4.42,2.89-2.45,7.48-3.3,11.6-3.45.48-1.27,2.26-.61,2.19-1.84.43-1.29,1.97-2.55.93-4.07-.5-.73.21-1.46-.63-2.21.37-1.36.42-2.49.31-3.73,1.19-1.37-.49-2.79.96-4.04-.31-2.88,1.71-5.47,1.86-7.5-.22-1.32.61-.83,1.29-2.61.67-1.84,1.54-2.07,1.83-3.18.29-1.13-.2-6.59-3.42-8.26-3.44-1.33-4.87-4.91-7.48-6.86-2.63-3.73-3.73-9.17-7.5-12.14-.36-3.25-1.83-3.54-2.35-7.03-1.07-1.5-1.83-4.36-2.18-5.48,2.02-1.81,5.94,2.14,7.15-.06-.06-1.33-.61-4.83.75-5.3,2.3.09,5,1.33,6.55.53,1.82-1.47-.23-7.01,2.51-7"/>
      </g>
      <path d="M19.74,56.37h14.25l18.62,52.12,18.75-52.12h14.25l-24.38,63.5h-17.25l-24.25-63.5ZM91.23,37c0-5,3.75-8.75,9-8.75s9,3.75,9,8.75c0,5.25-3.75,8.88-9,8.88s-9-3.62-9-8.88ZM93.23,56.37h13.62v63.5h-13.62v-63.5ZM116.23,100.5l12.62-2.25c.75,7.75,8.38,13.25,18.75,13.25,8.75,0,15.5-4,15.5-9.38,0-6-8.75-7.75-17.38-9.12-12.75-1.88-26.25-4.5-26.25-19.12.12-11.62,10.5-19.88,25-19.88s24.75,7.12,27,17.5l-12.12,3.12c-.88-5.88-6.88-10.12-15-10.12-7,0-12.12,4.12-12.12,9,0,6.25,8.75,6.62,17.62,8.25,12.62,2.12,26.25,5.88,26.25,19.12.12,12.5-12.12,21.38-28.75,21.38s-29.25-9-31.12-21.75ZM183.11,37c0-5,3.75-8.75,9-8.75s9,3.75,9,8.75c0,5.25-3.75,8.88-9,8.88s-9-3.62-9-8.88ZM185.11,56.37h13.62v63.5h-13.62v-63.5ZM256.73,99.12c-1.75,7.62-7.38,11.75-13.38,11.75s-10.5-4.75-10.5-11.62v-32.25h27.62v-10.62h-32.79c4.12-3.22,6.53-8.42,6.53-14.76v-6.61h-12.26v7.1c0,8.3-4.98,14.28-13.39,14.28h-2.71v10.62h13.38v34.13c0,12.5,8.62,21.12,22.12,21.12,11.12,0,20.75-6.25,23.5-17.12l-8.12-6ZM0,154.87h37.87c18.25,0,33.25,11,33.25,27.88s-14,27.88-33.25,27.88H14.62v32.75H0v-88.5ZM36.87,198.12c11.13,0,19.37-6.5,19.37-15.37s-8.12-15.5-19.37-15.5H14.62v30.87h22.25ZM73.62,211.62c0-20.13,14.12-34.13,34.5-34.13s34.5,14,34.5,34.13-14.25,34.12-34.5,34.12-34.5-14-34.5-34.12ZM128.99,211.62c0-12.88-8.75-22.13-20.88-22.13s-21,9.25-21,22.13,8.75,22.12,21,22.12,20.88-9.25,20.88-22.12ZM271.61,217.87v-38h13.5v37.75c0,9.37,6.75,16.12,16.38,16.12s16.13-6.75,16.13-16.12v-37.75h13.62v38c0,16.25-12.75,27.87-30,27.87s-29.62-11.62-29.62-27.87ZM416.72,226.37c0-10.5,8.75-18.75,27.5-20.87l14.62-1.62c3.25-.38,5.5-2.12,5.5-5.25,0-5.38-7.25-9.75-15.75-9.75-10.38,0-17.63,6.62-18.25,12.88l-12.37-4.5c1.25-10.25,14-19.75,30.87-19.75s28.75,9.75,28.75,23.5v29.75c0,2.25,1.25,3.75,3,3.75,1.5,0,3.38-1.25,4.5-3.25l5.63,8c-3.13,3.87-9,6.5-14.38,6.5-6.87,0-11.87-4.62-12-10.87l-.12-.87c-4.5,7.12-12.75,11.75-23.25,11.75-14.12,0-24.25-8-24.25-19.38ZM464.1,217.25v-4l-17.62,2c-11.87,1.25-16.25,5.5-16.25,10.25,0,5.5,6.12,9.13,14.38,9.13,11.25,0,19.5-7.25,19.5-17.38ZM498.6,154.87h13.62v88.5h-13.62v-88.5ZM256.73,222.62c-1.75,7.62-7.38,11.75-13.38,11.75s-10.5-4.75-10.5-11.62v-32.25h27.62v-10.62h-32.79c4.12-3.22,6.53-8.42,6.53-14.76v-6.61h-12.26v7.1c0,8.3-4.98,14.28-13.39,14.28h-2.71v10.62h13.38v34.13c0,12.5,8.62,21.12,22.12,21.12,11.12,0,20.75-6.25,23.5-17.12l-8.12-6ZM183.36,177.5c-8.38,0-15.13,4.62-18.5,12.25l-1.75-9.88h-11.12v63.5h13.62v-35c0-11.25,5.88-19.5,13.88-19.5,5.18,0,9.62,3.55,11.5,8.77l10.43-7.71c-3.12-7.49-9.55-12.44-18.06-12.44ZM394.73,179.87l-1.75,9.75c-5.25-7.5-12.75-11.88-22.5-11.88-17.62,0-30.37,14.12-30.37,33.88s12.75,33,30.37,33c9.5,0,17-4.38,22.38-11.75v7.5c0,13-9.37,22.5-23.37,22.5-8.9,0-16.7-3.75-21.19-9.27l-8.17,9.32c6.96,7.05,18.18,11.58,30.11,11.58,21.12,0,36.12-14.25,36.12-34.13v-60.5h-11.62ZM373.48,233c-11.5,0-19.88-9-19.88-21.37s8.38-22.13,19.88-22.13,19.87,9.25,19.87,22.13-8.38,21.37-19.87,21.37Z"/>
    </g>
  </g>
</svg>